/* XPM */
static char * blue_xpm[] = {
"18 18 90 1",
" 	c None",
".	c #0055EA",
"+	c #005BF9",
"@	c #0059F8",
"#	c #0053EC",
"$	c #0049D0",
"%	c #003AA5",
"&	c #005DF3",
"*	c #0066FE",
"=	c #006AFF",
"-	c #0069FF",
";	c #0065FF",
">	c #0060FF",
",	c #0058F9",
"'	c #004EDD",
")	c #003FB2",
"!	c #005EF5",
"~	c #006DFF",
"{	c #0070FF",
"]	c #0071FF",
"^	c #006EFF",
"/	c #0066FF",
"(	c #005EFF",
"_	c #0056F3",
":	c #004AD4",
"<	c #003BA8",
"[	c #0073FE",
"}	c #0074FF",
"|	c #0073FF",
"1	c #0067FF",
"2	c #0058FA",
"3	c #004FDF",
"4	c #0043BC",
"5	c #00308A",
"6	c #0175FF",
"7	c #0C7FFF",
"8	c #1081FF",
"9	c #0470FF",
"0	c #0061FF",
"a	c #0059FB",
"b	c #0050E2",
"c	c #0045C2",
"d	c #00379A",
"e	c #002261",
"f	c #4DBFFF",
"g	c #50BFFF",
"h	c #107CFF",
"i	c #0166FF",
"j	c #0057F8",
"k	c #004FE0",
"l	c #0044C2",
"m	c #00379C",
"n	c #002467",
"o	c #48B5FF",
"p	c #0D75FF",
"q	c #0063FE",
"r	c #005DFE",
"s	c #0055F2",
"t	c #004CD9",
"u	c #0042BC",
"v	c #003599",
"w	c #002468",
"x	c #001A4B",
"y	c #0266FE",
"z	c #005FFF",
"A	c #0059FA",
"B	c #0051E8",
"C	c #0049CF",
"D	c #003EB2",
"E	c #00328F",
"F	c #002262",
"G	c #005AFD",
"H	c #0054EE",
"I	c #0044C1",
"J	c #002D82",
"K	c #001F58",
"L	c #001B4B",
"M	c #004DDC",
"N	c #0047C8",
"O	c #003EB0",
"P	c #003493",
"Q	c #002770",
"R	c #001B4E",
"S	c #003FB4",
"T	c #00379B",
"U	c #002C7D",
"V	c #001F59",
"W	c #002362",
"X	c #001B4C",
"Y	c #001B4D",
"                  ",
"      .+@#$%      ",
"    &*=-;>,')     ",
"   !~{]^=/(_:<    ",
"  &~[}|]~1>2345   ",
"  *{}678910abcde  ",
" .=]|7fghi>jklmn  ",
" +-^]8gopqrstuvwx ",
" @;=~9hpyzABCDEFx ",
" #>/11iqzGHtI%JKL ",
" $,(>0>rAHMNOPQRx ",
" %'_2ajsBtNSTUVx  ",
"  ):3bktCIOTJWXx  ",
"   <4cluD%PUWYx   ",
"    5dmvEJQVXx    ",
"     enwFKRxx     ",
"       xxLx       ",
"                  "};
