/* XPM */
static char * GreenYellow_xpm[] = {
"18 18 96 2",
"  	c None",
". 	c #99D42A",
"+ 	c #A4E32D",
"@ 	c #A1DF2C",
"# 	c #96D02A",
"$ 	c #83B724",
"% 	c #69931D",
"& 	c #A9E92F",
"* 	c #B7F832",
"= 	c #BFFF35",
"- 	c #BDFF34",
"; 	c #B7FC32",
"> 	c #ACF030",
", 	c #9FDE2C",
"' 	c #8CC327",
") 	c #719E1F",
"! 	c #ABEB30",
"~ 	c #C4FF36",
"{ 	c #CBFE38",
"] 	c #CAFF38",
"^ 	c #C7FF37",
"/ 	c #C0FF35",
"( 	c #AAEC2F",
"_ 	c #9AD62B",
": 	c #86BB25",
"< 	c #6B941D",
"[ 	c #CEFF39",
"} 	c #D1FF39",
"| 	c #CFFF39",
"1 	c #CBFF38",
"2 	c #C3FF36",
"3 	c #BAFF34",
"4 	c #AEF230",
"5 	c #A0DE2C",
"6 	c #8DC527",
"7 	c #78A621",
"8 	c #587A18",
"9 	c #D4FF3B",
"0 	c #DDFF46",
"a 	c #DBFF48",
"b 	c #C7FF39",
"c 	c #AEF231",
"d 	c #A0DF2C",
"e 	c #90C828",
"f 	c #7BAB22",
"g 	c #62881B",
"h 	c #3E5611",
"i 	c #FDFF85",
"j 	c #FDFF87",
"k 	c #D2FF46",
"l 	c #B8FD33",
"m 	c #ACEF30",
"n 	c #9EDC2B",
"o 	c #8EC628",
"p 	c #7BAB21",
"q 	c #638A1B",
"r 	c #415B12",
"s 	c #F9FE7E",
"t 	c #C9FF41",
"u 	c #B3F732",
"v 	c #A7E82E",
"w 	c #9AD52A",
"x 	c #8AC026",
"y 	c #61871B",
"z 	c #425C12",
"A 	c #30420C",
"B 	c #B6FB34",
"C 	c #ABEE30",
"D 	c #92CC28",
"E 	c #83B624",
"F 	c #729D1F",
"G 	c #5B7E19",
"H 	c #30430C",
"I 	c #A2E12C",
"J 	c #97D22A",
"K 	c #7AAA22",
"L 	c #69911D",
"M 	c #537217",
"N 	c #384D0F",
"O 	c #30440C",
"P 	c #8CC227",
"Q 	c #7FB123",
"R 	c #709B1F",
"S 	c #5D821A",
"T 	c #466313",
"U 	c #32460D",
"V 	c #2F410D",
"W 	c #729E1F",
"X 	c #62891B",
"Y 	c #506F16",
"Z 	c #384E10",
"` 	c #527217",
" .	c #3E5711",
"..	c #31440D",
"+.	c #30430D",
"@.	c #30440D",
"                                    ",
"            . + @ # $ %             ",
"        & * = - ; > , ' )           ",
"      ! ~ { ] ^ / ; ( _ : <         ",
"    & ~ [ } | 1 2 3 4 5 6 7 8       ",
"    * { } 9 0 a b 3 c d e f g h     ",
"  . = ] | 0 i j k l m n o p q r     ",
"  + - ^ 1 a j s t u v w x 7 y z A   ",
"  @ ; / 2 b k t B C 5 D E F G h H   ",
"  # > ; 3 3 l u C I J x K L M N O   ",
"  $ , ( 4 c m v 5 J P Q R S T U V   ",
"  % ' _ 5 d n w D x Q W X Y Z H     ",
"    ) : 6 e o x E K R X `  ...+.    ",
"      < 7 f p 7 F L S Y  .@.+.      ",
"        8 g q y G M T Z ..+.        ",
"          h r z h N U H +.          ",
"              A H O V               ",
"                                    "};
