/* XPM */
static char * red_xpm[] = {
"20 20 103 2",
"  	c None",
". 	c #C32929",
"+ 	c #DC2E2E",
"@ 	c #D82D2D",
"# 	c #CB2A2A",
"$ 	c #B32626",
"% 	c #ED3131",
"& 	c #F73535",
"* 	c #FE3636",
"= 	c #FD3636",
"- 	c #FA3434",
"; 	c #ED3232",
"> 	c #DD2E2E",
", 	c #C42929",
"' 	c #A22121",
") 	c #791818",
"! 	c #F83434",
"~ 	c #FF3939",
"{ 	c #FE3B3B",
"] 	c #FF3A3A",
"^ 	c #FE3A3A",
"/ 	c #FF3737",
"( 	c #FB3535",
"_ 	c #EC3131",
": 	c #DA2D2D",
"< 	c #C12828",
"[ 	c #A22222",
"} 	c #6E1616",
"| 	c #FF3C3C",
"1 	c #FF3D3D",
"2 	c #FF3B3B",
"3 	c #FE3939",
"4 	c #F43434",
"5 	c #E22F2F",
"6 	c #CC2B2B",
"7 	c #B22424",
"8 	c #8E1D1D",
"9 	c #561111",
"0 	c #FF3E3E",
"a 	c #F73333",
"b 	c #E53030",
"c 	c #D12B2B",
"d 	c #B92626",
"e 	c #9A2020",
"f 	c #721717",
"g 	c #FF4545",
"h 	c #FF5E5E",
"i 	c #FF5A5A",
"j 	c #FF3F3F",
"k 	c #F63333",
"l 	c #BA2626",
"m 	c #9F2121",
"n 	c #7C1919",
"o 	c #4C0F0F",
"p 	c #FFA7A7",
"q 	c #FF8C8C",
"r 	c #FE4848",
"s 	c #FD3535",
"t 	c #F23232",
"u 	c #E12F2F",
"v 	c #CE2B2B",
"w 	c #B72626",
"x 	c #9D2020",
"y 	c #7D1A1A",
"z 	c #511010",
"A 	c #FE7070",
"B 	c #FF4040",
"C 	c #F93434",
"D 	c #EA3131",
"E 	c #DB2D2D",
"F 	c #C82929",
"G 	c #981F1F",
"H 	c #791919",
"I 	c #EF3232",
"J 	c #BF2828",
"K 	c #AA2323",
"L 	c #901E1E",
"M 	c #430C0C",
"N 	c #E42F2F",
"O 	c #D62C2C",
"P 	c #C62929",
"Q 	c #B42626",
"R 	c #9E2121",
"S 	c #861B1B",
"T 	c #671515",
"U 	c #460E0E",
"V 	c #440E0E",
"W 	c #B92727",
"X 	c #A62222",
"Y 	c #921E1E",
"Z 	c #771919",
"` 	c #581212",
" .	c #430D0D",
"..	c #A92323",
"+.	c #961F1F",
"@.	c #811B1B",
"#.	c #480E0E",
"$.	c #420D0D",
"%.	c #841B1B",
"&.	c #6D1616",
"*.	c #521111",
"=.	c #410D0D",
"-.	c #541111",
"                                        ",
"              . + @ # $                 ",
"          % & * = - ; > , ' )           ",
"        ! ~ { ] ^ / ( _ : < [ }         ",
"      ! ^ | 1 2 2 3 * 4 5 6 7 8 9       ",
"    % ~ | 0 1 0 1 ~ * a b c d e f       ",
"    & { 1 1 g h i j * k b c l m n o     ",
"  . * ] 2 0 h p q r s t u v w x y z     ",
"  + = ^ 2 1 i q A B C D E F 7 G H z     ",
"  @ - / 3 ~ j r B ( I u c J K L f o M   ",
"  # ; ( * * * s C I N O P Q R S T U V   ",
"  $ > _ 4 a k t D u O F W X Y Z `  .    ",
"    , : 5 b b u E c P W ..+.@.T #.$.    ",
"    ' < 6 c c v F J Q X +.%.&.*. .=.    ",
"    ) [ 7 d l w 7 K R Y @.&.-.V V       ",
"      } 8 e m x G L S Z T *.V M         ",
"        9 f n y H f T ` #. .V           ",
"            o z z o U  .$.=.            ",
"                  M V                   ",
"                                        "};
