/* XPM */
static char * tomato_xpm[] = {
"18 18 91 1",
" 	c None",
".	c #EA5E43",
"+	c #F96447",
"@	c #F86246",
"#	c #EC5B42",
"$	c #D0503A",
"%	c #A6402E",
"&	c #F3664A",
"*	c #FE7050",
"=	c #FF7554",
"-	c #FF7452",
";	c #FF6F50",
">	c #FF694C",
",	c #F96146",
"'	c #DD563E",
")	c #B24531",
"!	c #F5684B",
"~	c #FF7856",
"{	c #FF7C58",
"]	c #FF7C59",
"^	c #FF7A57",
"/	c #FF704F",
"(	c #FF684A",
"_	c #F35E44",
":	c #D4523B",
"<	c #A8412E",
"[	c #FE7E5A",
"}	c #FF7F5B",
"|	c #FF7151",
"1	c #FF6A4C",
"2	c #FA6145",
"3	c #DF573E",
"4	c #BC4934",
"5	c #8A3526",
"6	c #FF825D",
"7	c #FF8B67",
"8	c #FF8C69",
"9	c #FF7B59",
"0	c #FB6246",
"a	c #E2573E",
"b	c #C24C36",
"c	c #9A3C2B",
"d	c #61261B",
"e	c #FFCAA7",
"f	c #FFCAA8",
"g	c #FF8765",
"h	c #FF7150",
"i	c #FF684B",
"j	c #F86045",
"k	c #E0573E",
"l	c #C24B36",
"m	c #9C3D2C",
"n	c #67281D",
"o	c #FFBF9D",
"p	c #FF7F5F",
"q	c #FE6D4E",
"r	c #FE6649",
"s	c #F25D43",
"t	c #D9543C",
"u	c #993B2A",
"v	c #68281D",
"w	c #4B1D14",
"x	c #FE7051",
"y	c #FF694B",
"z	c #FA6146",
"A	c #E85A40",
"B	c #CF503A",
"C	c #B24532",
"D	c #8F3728",
"E	c #62261B",
"F	c #FD6347",
"G	c #EE5C42",
"H	c #C14B36",
"I	c #A53F2E",
"J	c #823224",
"K	c #582118",
"L	c #4B1E14",
"M	c #DC553D",
"N	c #C84D37",
"O	c #B04430",
"P	c #933929",
"Q	c #702B1F",
"R	c #4E1E15",
"S	c #4B1C15",
"T	c #B44531",
"U	c #9B3C2B",
"V	c #7D3023",
"W	c #592218",
"X	c #4C1E15",
"Y	c #4D1E15",
"Z	c #4B1D15",
"                  ",
"      .+@#$%      ",
"    &*=-;>,')     ",
"   !~{]^=/(_:<    ",
"  &~[}}]~|12345   ",
"  *{}6789|10abcd  ",
" .=]}7efghijklmn  ",
" +-^]8fopqrst4uvw ",
" @;=~9gpxyzABCDEw ",
" #>/||hqyFGtHIJKL ",
" $,(11irzGMNOPQRS ",
" %'_20jsAtNTUVWw  ",
"  ):3aktBHOUJEXw  ",
"   <4bl4CIPVEYZ   ",
"    5cmuDJQWXZ    ",
"     dnvEKRww     ",
"       wwLS       ",
"                  "};
