/* XPM */
static char * violet_20_xpm[] = {
"20 20 125 2",
"  	c None",
". 	c #A507F9",
"+ 	c #A600FD",
"@ 	c #A400FC",
"# 	c #9C00F6",
"$ 	c #9100E4",
"% 	c #8004C8",
"& 	c #B302FE",
"* 	c #BA00FE",
"= 	c #BE00FF",
"- 	c #BC00FF",
"; 	c #B800FF",
"> 	c #B000FF",
", 	c #A500FE",
"' 	c #9900F0",
") 	c #8600D4",
"! 	c #7202B2",
"~ 	c #C600FF",
"{ 	c #CA00FF",
"] 	c #C900FF",
"^ 	c #C000FF",
"/ 	c #AF00FF",
"( 	c #A300FE",
"_ 	c #9500EB",
": 	c #8300CE",
"< 	c #6A00A7",
"[ 	c #52077D",
"} 	c #C800FF",
"| 	c #CF00FF",
"1 	c #D000FF",
"2 	c #CE00FF",
"3 	c #C500FF",
"4 	c #BD00FF",
"5 	c #B400FF",
"6 	c #A900FF",
"7 	c #9C00F5",
"8 	c #8B00DC",
"9 	c #7800BD",
"0 	c #5D0092",
"a 	c #450D65",
"b 	c #D100FF",
"c 	c #D200FF",
"d 	c #D101FF",
"e 	c #CE02FF",
"f 	c #C701FF",
"g 	c #BF00FF",
"h 	c #B600FF",
"i 	c #AA00FF",
"j 	c #9E00F8",
"k 	c #8F00E1",
"l 	c #7E00C5",
"m 	c #6800A3",
"n 	c #490172",
"o 	c #D705FF",
"p 	c #EB1BFF",
"q 	c #EA1FFF",
"r 	c #CF09FF",
"s 	c #BE01FF",
"t 	c #B500FF",
"u 	c #9000E2",
"v 	c #7F00C8",
"w 	c #6B00A9",
"x 	c #51007E",
"y 	c #3A0A56",
"z 	c #FF5EFF",
"A 	c #FF5CFF",
"B 	c #DD1BFF",
"C 	c #BC02FF",
"D 	c #B200FE",
"E 	c #A700FF",
"F 	c #8E00DF",
"G 	c #7E00C7",
"H 	c #6B00A8",
"I 	c #530083",
"J 	c #340051",
"K 	c #FF4EFF",
"L 	c #D316FF",
"M 	c #B801FF",
"N 	c #AD00FF",
"O 	c #9800EE",
"P 	c #8A00D9",
"Q 	c #7A00C1",
"R 	c #6800A5",
"S 	c #520081",
"T 	c #350053",
"U 	c #BC05FF",
"V 	c #B000FE",
"W 	c #A800FF",
"X 	c #9D00F7",
"Y 	c #9200E6",
"Z 	c #8500D1",
"` 	c #7600B9",
" .	c #63009D",
"..	c #4E007A",
"+.	c #330050",
"@.	c #A100FC",
"#.	c #9600ED",
"$.	c #8B00DA",
"%.	c #7E00C6",
"&.	c #6F00AE",
"*.	c #5D0093",
"=.	c #47006F",
"-.	c #31004C",
";.	c #9700EF",
">.	c #8200CD",
",.	c #6600A0",
"'.	c #540084",
").	c #3F0061",
"!.	c #30004C",
"~.	c #8400D0",
"{.	c #5B0090",
"].	c #4A0074",
"^.	c #350052",
"/.	c #30004B",
"(.	c #6C00AB",
"_.	c #5F0096",
":.	c #50007D",
"<.	c #3D005E",
"[.	c #350650",
"}.	c #51007F",
"|.	c #410066",
"1.	c #32004E",
"2.	c #32004F",
"3.	c #360650",
"4.	c #33034E",
"                                        ",
"              . + @ # $ %               ",
"          & * = - ; > , ' ) !           ",
"        ; ~ { ] ~ ^ ; / ( _ : < [       ",
"      ; } | 1 2 { 3 4 5 6 7 8 9 0 a     ",
"    & ~ | b c d e f g h i j k l m n     ",
"    * { 1 c o p q r s t i j u v w x y   ",
"  . = ] 2 d p z A B C D E 7 F G H I J   ",
"  + - ~ { e q A K L M N ( O P Q R S T   ",
"  @ ; ^ 3 f r B L U V W X Y Z `  ...+.  ",
"  # > ; 4 g s C M V W @.#.$.%.&.*.=.-.  ",
"  $ , / 5 h t D N W @.;.F >.` ,.'.).!.  ",
"  % ' ( 6 i i E ( X #.F ~.9 H {.].^./.  ",
"    ) _ 7 j j 7 O Y $.>.9 (._.:.<./.[.  ",
"    ! : 8 k u F P Z %.` H _.}.|.1.-.    ",
"      < 9 l v G Q ` &.,.{.:.|.2./.3.    ",
"      [ 0 m w H R  .*.'.].<.1./.4.      ",
"        a n x I S ..=.).^./.-.3.        ",
"            y J T +.-.!./.[.            ",
"                                        "};
