/* XPM */
static char * yellow_xpm[] = {
"18 18 83 1",
" 	c None",
".	c #F2D600",
"+	c #FAEA00",
"@	c #FCEC00",
"#	c #FDE800",
"$	c #FBDD00",
"%	c #EECA00",
"&	c #CFAF00",
"*	c #A78E00",
"=	c #F7E500",
"-	c #FFFD00",
";	c #FEFF00",
">	c #FFFF00",
",	c #FFF300",
"'	c #FFE200",
")	c #F1CD00",
"!	c #CFB000",
"~	c #9C8400",
"{	c #FFFA00",
"]	c #FFEB00",
"^	c #FCD700",
"/	c #E1BE00",
"(	c #BDA000",
"_	c #826E00",
":	c #FFFF01",
"<	c #FFFF04",
"[	c #FFFF02",
"}	c #FFFC00",
"|	c #FFED00",
"1	c #FDDB00",
"2	c #E7C400",
"3	c #C7A800",
"4	c #615200",
"5	c #FFFF1A",
"6	c #FFFF3C",
"7	c #FFFF16",
"8	c #FFFB01",
"9	c #FCD900",
"0	c #E7C300",
"a	c #C7A900",
"b	c #A18900",
"c	c #6B5A00",
"d	c #FFFF71",
"e	c #FFFF24",
"f	c #FFF601",
"g	c #FFE600",
"h	c #F9D400",
"i	c #E1BF00",
"j	c #C4A600",
"k	c #A08700",
"l	c #6F5D00",
"m	c #4B3F00",
"n	c #FFFB0A",
"o	c #FFEC00",
"p	c #FEDD00",
"q	c #F0CB00",
"r	c #D8B700",
"s	c #BB9E00",
"t	c #988000",
"u	c #695900",
"v	c #4C4100",
"w	c #FFDF00",
"x	c #F7D100",
"y	c #E3C000",
"z	c #CAAC00",
"A	c #AE9300",
"B	c #8B7600",
"C	c #5F5000",
"D	c #E6C300",
"E	c #D2B100",
"F	c #B99D00",
"G	c #9D8600",
"H	c #796700",
"I	c #524600",
"J	c #4B4000",
"K	c #BEA000",
"L	c #A58C00",
"M	c #877300",
"N	c #625300",
"O	c #8C7600",
"P	c #6D5D00",
"Q	c #4F4300",
"R	c #514400",
"                  ",
"                  ",
"     .+@#$%&*     ",
"    =-;>-,')!~    ",
"   =>>>>>{]^/(_   ",
"  .->>:<[}|123~4  ",
"  +;>:5678]90abc  ",
"  @>><6defghijklm ",
"  #->[7enopqrstuv ",
"  $,{}8fowxyzABCv ",
"  %']|]gpxDEFGHIJ ",
"  &)^19hqyEKLMNJ  ",
"  *!/20irzFLOPQJ  ",
"   ~(3ajsAGMPRv   ",
"    _~bktBHNQv    ",
"     4cluCIJJ     ",
"       mvvJ       ",
"                  "};
